<?xml version="1.0" encoding="UTF-8" standalone="no"?>
<svg
   width="64"
   height="64"
   version="1.1"
   id="svg8"
   sodipodi:docname="controller_xboxone_filled.svg"
   inkscape:version="1.1 (c68e22c387, 2021-05-23)"
   xmlns:inkscape="http://www.inkscape.org/namespaces/inkscape"
   xmlns:sodipodi="http://sodipodi.sourceforge.net/DTD/sodipodi-0.dtd"
   xmlns="http://www.w3.org/2000/svg"
   xmlns:svg="http://www.w3.org/2000/svg">
  <sodipodi:namedview
     id="namedview10"
     pagecolor="#505050"
     bordercolor="#eeeeee"
     borderopacity="1"
     inkscape:pageshadow="0"
     inkscape:pageopacity="0"
     inkscape:pagecheckerboard="0"
     showgrid="false"
     inkscape:zoom="16.639106"
     inkscape:cx="34.256647"
     inkscape:cy="26.533877"
     inkscape:window-width="1920"
     inkscape:window-height="1001"
     inkscape:window-x="-9"
     inkscape:window-y="-9"
     inkscape:window-maximized="1"
     inkscape:current-layer="g6" />
  <defs
     id="defs2" />
  <g
     id="g6">
    <path
       stroke="none"
       fill="#ffffff"
       d="m 23.55,39.45 c -1.6,-0.06667 -2.916667,0.633333 -3.95,2.1 L 15.1,47.4 C 14.466667,48.133333 13.833333,48.666667 13.2,49 10.7,48.566667 9.2,47.483333 8.7,45.75 7.9333333,43.15 7.8,40.4 8.3,37.5 9.2333333,33.033333 10.516667,28.683333 12.15,24.45 13.383333,20.883333 14.4,19.066667 15.2,19 17.50933,17.43786 22.481789,16.019188 25.85,16 H 38.1 c 3.085266,-0.05589 8.912971,1.24534 10.7,3 0.8,0.06667 1.816667,1.883333 3.05,5.45 1.633333,4.233333 2.916667,8.583333 3.85,13.05 0.5,2.9 0.366667,5.65 -0.4,8.25 -0.533333,1.733333 -2.033333,2.816667 -4.5,3.25 -0.633333,-0.333333 -1.283333,-0.866667 -1.95,-1.6 -1.533333,-1.766667 -3.016667,-3.716667 -4.45,-5.85 -1.033333,-1.466667 -2.366667,-2.166667 -4,-2.1 H 23.55"
       id="path4"
       sodipodi:nodetypes="ccccccccccccccccccc" />
  </g>
</svg>
