<?xml version="1.0" encoding="UTF-8" standalone="no"?>
<svg
   width="64"
   height="64"
   version="1.1"
   id="svg8"
   sodipodi:docname="xbox_stick_top_r_btn_outline.svg"
   inkscape:version="1.1 (c68e22c387, 2021-05-23)"
   xmlns:inkscape="http://www.inkscape.org/namespaces/inkscape"
   xmlns:sodipodi="http://sodipodi.sourceforge.net/DTD/sodipodi-0.dtd"
   xmlns="http://www.w3.org/2000/svg"
   xmlns:svg="http://www.w3.org/2000/svg">
  <sodipodi:namedview
     id="namedview10"
     pagecolor="#505050"
     bordercolor="#eeeeee"
     borderopacity="1"
     inkscape:pageshadow="0"
     inkscape:pageopacity="0"
     inkscape:pagecheckerboard="0"
     showgrid="false"
     inkscape:zoom="11.765625"
     inkscape:cx="31.957503"
     inkscape:cy="32"
     inkscape:window-width="1920"
     inkscape:window-height="1001"
     inkscape:window-x="-9"
     inkscape:window-y="-9"
     inkscape:window-maximized="1"
     inkscape:current-layer="g6" />
  <defs
     id="defs2" />
  <g
     id="g6">
    <path
       id="path4"
       d="M 32 16 C 27.566667 16 23.799219 17.565886 20.699219 20.699219 C 17.565886 23.799219 16 27.566667 16 32 C 16 36.433333 17.550391 40.183333 20.650391 43.25 L 21 43.650391 C 24.066667 46.550391 27.733333 48 32 48 C 36.433333 48 40.183333 46.449609 43.25 43.349609 L 43.349609 43.25 C 46.449609 40.183333 48 36.433333 48 32 C 48 27.733333 46.550391 24.066667 43.650391 21 L 43.25 20.650391 C 40.183333 17.550391 36.433333 16 32 16 z M 20.699219 20.699219 L 20.699219 20.650391 L 20.650391 20.699219 L 20.699219 20.699219 z M 32 19 C 35.602083 19 38.648958 20.258595 41.140625 22.777344 L 41.464844 23.0625 C 43.821094 25.554166 45 28.533333 45 32 C 45 35.602083 43.741406 38.648958 41.222656 41.140625 L 41.140625 41.222656 C 38.648958 43.741406 35.602083 45 32 45 C 28.533333 45 25.554167 43.821093 23.0625 41.464844 L 22.777344 41.140625 C 20.258594 38.648958 19 35.602083 19 32 C 19 28.397916 20.272526 25.337109 22.818359 22.818359 L 22.777344 22.818359 L 22.818359 22.777344 L 22.818359 22.818359 C 25.337109 20.272526 28.397917 19 32 19 z "
       style="fill:#ffffff;fill-opacity:1" />
    <path
       d="m 26,24 v 16 h 4 v -4 h 4 l 2,4 h 4 l -2.9,-5.65 0.1,-0.1 0.05,-0.05 C 38.416667,33.033333 39,31.633333 39,30 39,28.333333 38.416667,26.916667 37.25,25.75 L 37.2,25.7 36,24.8 C 35.166667,24.3 34.233333,24.033333 33.2,24 H 26 m 7,4 c 0.533333,0 1,0.2 1.4,0.6 h 0.05 c 0.366667,0.366667 0.55,0.833333 0.55,1.4 0,0.533333 -0.183333,0.983333 -0.55,1.35 l -0.1,0.1 C 33.983333,31.816667 33.533333,32 33,32 h -3 v -4 h 3"
       style="fill:#ffffff;stroke:none"
       id="path847" />
  </g>
</svg>
