<?xml version="1.0" encoding="UTF-8" standalone="no"?>
<svg
   width="64"
   height="64"
   version="1.1"
   id="svg8"
   sodipodi:docname="xbox_stick_top_bg.svg"
   inkscape:version="1.1 (c68e22c387, 2021-05-23)"
   xmlns:inkscape="http://www.inkscape.org/namespaces/inkscape"
   xmlns:sodipodi="http://sodipodi.sourceforge.net/DTD/sodipodi-0.dtd"
   xmlns="http://www.w3.org/2000/svg"
   xmlns:svg="http://www.w3.org/2000/svg">
  <sodipodi:namedview
     id="namedview10"
     pagecolor="#505050"
     bordercolor="#eeeeee"
     borderopacity="1"
     inkscape:pageshadow="0"
     inkscape:pageopacity="0"
     inkscape:pagecheckerboard="0"
     showgrid="false"
     inkscape:zoom="11.765625"
     inkscape:cx="31.957503"
     inkscape:cy="32"
     inkscape:window-width="1920"
     inkscape:window-height="1001"
     inkscape:window-x="-9"
     inkscape:window-y="-9"
     inkscape:window-maximized="1"
     inkscape:current-layer="g6" />
  <defs
     id="defs2" />
  <g
     id="g6">
    <path
       stroke="none"
       fill="#ffffff"
       d="M 32,12 C 26.466667,12 21.75,13.95 17.85,17.85 13.95,21.75 12,26.466667 12,32 c 0,5.533333 1.95,10.233333 5.85,14.1 v 0.05 C 21.75,50.05 26.466667,52 32,52 37.533333,52 42.233333,50.05 46.1,46.15 L 46.15,46.1 C 50.05,42.233333 52,37.533333 52,32 52,26.466667 50.05,21.75 46.15,17.85 H 46.1 C 42.233333,13.95 37.533333,12 32,12 M 56,32 C 56,38.666667 53.65,44.316667 48.95,48.95 44.316667,53.65 38.666667,56 32,56 25.366667,56 19.7,53.65 15,48.95 10.333333,44.316667 8,38.666667 8,32 8,25.366667 10.333333,19.7 15,15 19.7,10.333333 25.366667,8 32,8 c 6.666667,0 12.316667,2.333333 16.95,7 4.7,4.7 7.05,10.366667 7.05,17"
       id="path4"
       sodipodi:nodetypes="cssccsccscccccscscscc" />
  </g>
</svg>
